/kaggle/working/opencap-processing/OpenCapData_ab7eb7cf-817d-4035-a30b-ee68773906cb/OpenSimData/Dynamics/Suhasno_4/GRF_resultant_Suhasno_4_Suhasno_4_window_2.mot
version=1
nRows=20
nColumns=19
inDegrees=yes
endheader 
time	ground_force_right_vx	ground_force_right_vy	ground_force_right_vz	ground_force_right_px	ground_force_right_py	ground_force_right_pz	ground_torque_right_x	ground_torque_right_y	ground_torque_right_z	ground_force_left_vx	ground_force_left_vy	ground_force_left_vz	ground_force_left_px	ground_force_left_py	ground_force_left_pz	ground_torque_left_x	ground_torque_left_y	ground_torque_left_z	
          2.00000000	         22.04373468	         24.61183047	        -13.13544544	          1.80092794	          0.00000000	          0.03559354	          0.00000000	         -0.00009186	          0.00000000	        -81.63937835	         79.05908115	         36.18412210	          1.82555764	          0.00000000	         -0.17492893	          0.00000000	         -0.00783504	          0.00000000	
          2.05000000	         11.34755698	         14.08693084	        -12.99780129	          1.77209895	          0.00000000	          0.05993785	          0.00000000	         -0.00174525	          0.00000000	         68.02776611	        565.90754851	         27.31916709	          1.88432762	          0.00000000	         -0.21313956	          0.00000000	          0.58582715	          0.00000000	
          2.10000000	          4.80627571	          5.49980981	         -3.39474566	          1.75636403	          0.00000000	          0.09033118	          0.00000000	         -0.00009315	          0.00000000	         54.53205163	        585.47730612	         41.81125691	          1.89029454	          0.00000000	         -0.21937430	          0.00000000	          6.52381495	          0.00000000	
          2.15000000	          4.61226254	          4.54066876	         -1.16875166	          1.73857656	          0.00000000	          0.10262070	          0.00000000	         -0.00000193	          0.00000000	         23.61399303	        584.64289934	         66.95612234	          1.90385302	          0.00000000	         -0.22899427	          0.00000000	          6.29251161	          0.00000000	
          2.20000000	         10.57311283	         11.00367398	         -2.86631899	          1.72369099	          0.00000000	          0.10836611	          0.00000000	         -0.00000013	          0.00000000	         43.58859869	        679.34360776	         70.58316983	          1.90880148	          0.00000000	         -0.22959450	          0.00000000	          7.84273431	          0.00000000	
          2.25000000	         -6.70568930	          6.97790252	          0.17524418	          1.72492566	          0.00000000	          0.11095835	          0.00000000	         -0.00000003	          0.00000000	        103.47876955	        493.24987226	         26.32470488	          1.90772775	          0.00000000	         -0.22955157	          0.00000000	          4.69941938	          0.00000000	
          2.30000000	          0.00000361	         -0.00000274	         -0.00000054	          0.00000000	          0.00000000	          0.00000000	          0.00000000	          0.00000134	          0.00000000	         78.06248746	        447.04958663	          8.76565425	          1.90814636	          0.00000000	         -0.23238858	          0.00000000	          3.42065591	          0.00000000	
          2.35000000	         -0.00000047	          0.00000033	          0.00000007	          1.83039687	          0.00000000	          0.09538468	          0.00000000	         -0.00000000	          0.00000000	         82.61685280	        666.46162190	         59.30450608	          1.91039917	          0.00000000	         -0.23343355	          0.00000000	          2.91294538	          0.00000000	
          2.40000000	         -0.00000014	          0.00000009	         -0.00000001	          1.89951957	          0.00000000	          0.09448881	          0.00000000	         -0.00000000	          0.00000000	         97.66116163	        563.19986862	         58.14020033	          1.92289950	          0.00000000	         -0.23708484	          0.00000000	          2.17271930	          0.00000000	
          2.45000000	         -0.00000153	          0.00000084	         -0.00000004	          1.98271358	          0.00000000	          0.09497339	          0.00000000	          0.00000000	          0.00000000	         51.15326807	        437.13150442	         35.88022341	          1.93704101	          0.00000000	         -0.24214148	          0.00000000	          1.47717488	          0.00000000	
          2.50000000	         -0.00004003	          0.00002000	         -0.00000049	          2.04520494	          0.00000000	          0.08024241	          0.00000000	          0.00000000	          0.00000000	         60.33689419	        571.91529198	         49.12306574	          1.94233348	          0.00000000	         -0.24387325	          0.00000000	         -0.45245442	          0.00000000	
          2.55000000	         -1.78306314	          0.81775311	         -0.03351511	          2.01626494	          0.00000000	          0.06322194	          0.00000000	         -0.00000153	          0.00000000	         98.29855124	        745.95257415	         54.45001916	          1.94140660	          0.00000000	         -0.24326207	          0.00000000	         -2.57085121	          0.00000000	
          2.60000000	        -57.80435051	         28.79470233	          4.98553024	          2.12626650	          0.00000000	          0.06072986	          0.00000000	         -0.00000132	          0.00000000	         50.63616931	        410.86379757	         34.83574818	          1.95130763	          0.00000000	         -0.24672833	          0.00000000	          0.05261506	          0.00000000	
          2.65000000	        -78.23122308	         78.08726960	         48.76925324	          2.20132350	          0.00000000	          0.04681507	          0.00000000	          0.00009083	          0.00000000	         86.21263520	        328.32507211	         25.29939640	          1.96934585	          0.00000000	         -0.25007681	          0.00000000	         -1.29692853	          0.00000000	
          2.70000000	         33.60813119	        362.22957128	         -5.80014956	          2.22389972	          0.00000000	          0.03602178	          0.00000000	         -0.03121512	          0.00000000	         68.59120017	        469.31249732	         23.84499049	          1.97990211	          0.00000000	         -0.24371051	          0.00000000	         -3.46095842	          0.00000000	
          2.75000000	         45.20181142	        413.38310849	        -40.36120914	          2.23464301	          0.00000000	          0.04320555	          0.00000000	         -0.97592357	          0.00000000	         39.36617945	        189.17363757	          0.54708983	          2.00615275	          0.00000000	         -0.23501296	          0.00000000	         -0.42538909	          0.00000000	
          2.80000000	         -7.42843741	        344.38396518	        -14.30976302	          2.25412308	          0.00000000	          0.04791704	          0.00000000	         -2.17848651	          0.00000000	         44.92894006	        188.76271868	        -10.04523182	          2.01599169	          0.00000000	         -0.22793367	          0.00000000	         -0.27857675	          0.00000000	
          2.85000000	        -60.02303481	        438.87101821	         40.74553333	          2.28406432	          0.00000000	          0.05173874	          0.00000000	         -6.63525994	          0.00000000	        153.13120273	        167.81374983	        -51.55437716	          2.01950086	          0.00000000	         -0.22093001	          0.00000000	         -0.00149265	          0.00000000	
          2.90000000	        225.61847755	        485.75974954	         28.70065405	          2.30125296	          0.00000000	          0.05844794	          0.00000000	         -9.11712785	          0.00000000	        -16.23987659	         40.82909853	        -36.65504125	          2.01221626	          0.00000000	         -0.21115882	          0.00000000	          0.00070830	          0.00000000	
          2.95000000	        213.30291514	        620.99624100	        -44.54747257	          2.31885596	          0.00000000	          0.06961927	          0.00000000	         -5.41482595	          0.00000000	         -0.02331426	          0.01615370	         -0.00434050	          2.05722247	          0.00000000	         -0.19334925	          0.00000000	          0.00000005	          0.00000000	
